<?xml version="1.0" encoding="UTF-8" standalone="no"?>
<!DOCTYPE svg PUBLIC "-//W3C//DTD SVG 1.1//EN" "http://www.w3.org/Graphics/SVG/1.1/DTD/svg11.dtd">
<svg xmlns="http://www.w3.org/2000/svg" xmlns:xlink="http://www.w3.org/1999/xlink" version="1.1" width="564.46389pt" height="514.2166pt" viewBox="0 0 564.46389 514.2166">
<g enable-background="new">
<path transform="matrix(2.7777777,0,0,-2.7777777,183.3111,330.90556)" stroke-width=".79701" stroke-linecap="butt" stroke-miterlimit="10" stroke-linejoin="miter" fill="none" stroke="#000000" d="M -56.69362 -56.69362 L -56.69362 96.37897 L 113.38724 96.37897 L 113.38724 -56.69362 Z M 113.38724 96.37897 "/>
<symbol id="font_0_4">
<path d="M .5680001 .6 C .57800009 .64100006 .5960001 .67100009 .676 .674 C .681 .674 .6930001 .6750001 .6930001 .69400009 C .6930001 .69500008 .6930001 .70500007 .68000009 .70500007 C .6470001 .70500007 .612 .702 .57800009 .702 C .544 .702 .50699999 .70500007 .474 .70500007 C .46800003 .70500007 .456 .70500007 .456 .68500009 C .456 .674 .46600006 .674 .474 .674 C .531 .67300006 .54200008 .65200009 .54200008 .63000008 C .54200008 .62700006 .5400001 .61200007 .53900006 .609 L .44900004 .252 C .41500003 .118 .3 .031000004 .20000002 .031000004 C .13200002 .031000004 .07800001 .075 .07800001 .16100002 C .07800001 .163 .07800001 .19500001 .089 .23900001 L .18600002 .628 C .19500003 .66400006 .197 .674 .27 .674 C .296 .674 .30400003 .674 .30400003 .69400009 C .30400003 .70500007 .293 .70500007 .29000003 .70500007 C .26200003 .70500007 .19 .702 .16200002 .702 C .133 .702 .062000008 .70500007 .033 .70500007 C .025000006 .70500007 .013999999 .70500007 .013999999 .68500009 C .013999999 .674 .023000002 .674 .042000005 .674 C .044000009 .674 .06300001 .674 .08 .67200008 C .098000008 .67 .10700001 .669 .10700001 .656 C .10700001 .65000006 .096 .60800006 .09 .58500006 L .068 .49700005 C .059 .45800004 .011 .26900003 .0069999995 .25000004 C 0 .222 0 .207 0 .192 C 0 .07 .091000009 0 .19600001 0 C .32200004 0 .446 .113000009 .479 .245 L .5680001 .6 Z "/>
</symbol>
<use xlink:href="#font_0_4" transform="matrix(27.673888,0,0,-27.673888,510.4569,53.467164)"/>
<path transform="matrix(2.7777777,0,0,-2.7777777,183.3111,330.90556)" d="M 42.5202 0 C 42.5202 23.48355 23.48355 42.5202 0 42.5202 C -23.48355 42.5202 -42.5202 23.48355 -42.5202 0 C -42.5202 -23.48355 -23.48355 -42.5202 0 -42.5202 C 23.48355 -42.5202 42.5202 -23.48355 42.5202 0 Z M 0 0 " fill="#b3b3ff" fill-opacity=".5"/>
<path transform="matrix(2.7777777,0,0,-2.7777777,183.3111,330.90556)" d="M 99.21382 0 C 99.21382 23.48355 80.17717 42.5202 56.69362 42.5202 C 33.21005 42.5202 14.1734 23.48355 14.1734 0 C 14.1734 -23.48355 33.21005 -42.5202 56.69362 -42.5202 C 80.17717 -42.5202 99.21382 -23.48355 99.21382 0 Z M 56.69362 0 " fill="#ffb3b3" fill-opacity=".5"/>
<path transform="matrix(2.7777777,0,0,-2.7777777,183.3111,330.90556)" d="M 70.867 42.5202 C 70.867 66.00375 51.83037 85.0404 28.3468 85.0404 C 4.86324 85.0404 -14.17339 66.00375 -14.17339 42.5202 C -14.17339 19.03664 4.86324 0 28.3468 0 C 51.83037 0 70.867 19.03664 70.867 42.5202 Z M 28.3468 42.5202 " fill="#b3ffb3" fill-opacity=".5"/>
<path transform="matrix(2.7777777,0,0,-2.7777777,183.3111,330.90556)" stroke-width=".79701" stroke-linecap="butt" stroke-miterlimit="10" stroke-linejoin="miter" fill="none" stroke="#0000ff" d="M 42.5202 0 C 42.5202 23.48355 23.48355 42.5202 0 42.5202 C -23.48355 42.5202 -42.5202 23.48355 -42.5202 0 C -42.5202 -23.48355 -23.48355 -42.5202 0 -42.5202 C 23.48355 -42.5202 42.5202 -23.48355 42.5202 0 Z M 0 0 "/>
<symbol id="font_0_1">
<path d="M .14400001 .115 C .10400002 .048 .065 .034 .021000002 .031000002 C .009000003 .030000002 0 .030000002 0 .011000001 C 0 .0050000005 .0050000029 0 .013 0 C .040000004 0 .07100001 .003 .09900001 .003 C .13200002 .003 .16700001 0 .19900002 0 C .20500002 0 .21800003 0 .21800003 .019000002 C .21800003 .030000002 .20900002 .031000002 .20200002 .031000002 C .17900002 .033 .15500002 .041 .15500002 .066 C .15500002 .078 .16100002 .089 .16900002 .10300001 L .245 .231 L .49600003 .231 C .49800007 .21000001 .512 .074 .512 .064 C .512 .034 .46000005 .031000002 .44000004 .031000002 C .42600004 .031000002 .41600005 .031000002 .41600005 .011000001 C .41600005 0 .42800004 0 .43000005 0 C .47100006 0 .514 .003 .555 .003 C .58 .003 .643 0 .668 0 C .674 0 .686 0 .686 .020000002 C .686 .031000002 .676 .031000002 .663 .031000002 C .601 .031000002 .601 .038000004 .598 .067 L .537 .69200006 C .535 .712 .535 .716 .518 .716 C .502 .716 .49800007 .70900008 .492 .69900009 L .14400001 .115 M .26400004 .26200003 L .46100004 .592 L .493 .26200003 L .26400004 .26200003 Z "/>
</symbol>
<use xlink:href="#font_0_1" transform="matrix(27.673888,0,0,-27.673888,153.19356,360.14717)" fill="#0000ff"/>
<path transform="matrix(2.7777777,0,0,-2.7777777,183.3111,330.90556)" stroke-width=".79701" stroke-linecap="butt" stroke-miterlimit="10" stroke-linejoin="miter" fill="none" stroke="#ff0000" d="M 99.21382 0 C 99.21382 23.48355 80.17717 42.5202 56.69362 42.5202 C 33.21005 42.5202 14.1734 23.48355 14.1734 0 C 14.1734 -23.48355 33.21005 -42.5202 56.69362 -42.5202 C 80.17717 -42.5202 99.21382 -23.48355 99.21382 0 Z M 56.69362 0 "/>
<symbol id="font_0_2">
<path d="M .11800001 .078 C .108 .039 .106 .031000002 .027000003 .031000002 C .009999998 .031000002 0 .031000002 0 .011000001 C 0 0 .009 0 .027000003 0 L .38400004 0 C .54200008 0 .66 .11800001 .66 .216 C .66 .28800003 .60200008 .34600003 .50500008 .35700003 C .609 .37600003 .71400007 .45000003 .71400007 .545 C .71400007 .619 .64800009 .683 .52800008 .683 L .192 .683 C .17300001 .683 .16300002 .683 .16300002 .66300007 C .16300002 .652 .17200002 .652 .19100002 .652 C .19300002 .652 .21200001 .652 .22900003 .65000006 C .24700001 .648 .256 .647 .256 .634 C .256 .63000008 .25500003 .62700006 .252 .615 L .11800001 .078 M .26900003 .36600004 L .33100004 .614 C .34000004 .64900007 .342 .652 .38500003 .652 L .51400008 .652 C .60200008 .652 .623 .59300008 .623 .549 C .623 .46100004 .53700008 .36600004 .41500003 .36600004 L .26900003 .36600004 M .224 .031000002 C .21000001 .031000002 .208 .031000002 .20200002 .032 C .192 .033 .18900001 .034 .18900001 .042000005 C .18900001 .045 .18900001 .047000003 .194 .065000008 L .263 .344 L .45200003 .344 C .54800006 .344 .56700006 .27 .56700006 .22700002 C .56700006 .128 .47800005 .031000002 .36 .031000002 L .224 .031000002 Z "/>
</symbol>
<use xlink:href="#font_0_2" transform="matrix(27.673888,0,0,-27.673888,352.28446,360.14717)" fill="#ff0000"/>
<path transform="matrix(2.7777777,0,0,-2.7777777,183.3111,330.90556)" stroke-width=".79701" stroke-linecap="butt" stroke-miterlimit="10" stroke-linejoin="miter" fill="none" stroke="#00ff00" d="M 70.867 42.5202 C 70.867 66.00375 51.83037 85.0404 28.3468 85.0404 C 4.86324 85.0404 -14.17339 66.00375 -14.17339 42.5202 C -14.17339 19.03664 4.86324 0 28.3468 0 C 51.83037 0 70.867 19.03664 70.867 42.5202 Z M 28.3468 42.5202 "/>
<symbol id="font_0_3">
<path d="M .71000006 .71700009 C .71000006 .72 .708 .72700008 .699 .72700008 C .69600006 .72700008 .69500008 .7260001 .684 .71500006 L .614 .6380001 C .605 .65200009 .559 .72700008 .448 .72700008 C .22500001 .72700008 0 .50600007 0 .27400003 C 0 .109000008 .118000019 0 .271 0 C .358 0 .43400003 .040000004 .487 .086 C .58000007 .16800002 .597 .25900004 .597 .26200003 C .597 .272 .587 .272 .58500006 .272 C .579 .272 .574 .27 .572 .26200003 C .563 .23300001 .54 .162 .47100003 .104 C .402 .048 .33900003 .031000004 .287 .031000004 C .19700001 .031000004 .091000009 .083000008 .091000009 .23900001 C .091000009 .29600004 .112 .45800004 .21200003 .57500007 C .273 .646 .367 .69600006 .45600004 .69600006 C .558 .69600006 .61700007 .619 .61700007 .503 C .61700007 .46300004 .614 .46200005 .614 .45200003 C .614 .44200004 .625 .44200004 .629 .44200004 C .642 .44200004 .642 .44400005 .647 .46200005 L .71000006 .71700009 Z "/>
</symbol>
<use xlink:href="#font_0_3" transform="matrix(27.673888,0,0,-27.673888,252.55591,203.07273)" fill="#00ff00"/>
</g>
</svg>
