<svg xmlns="http://www.w3.org/2000/svg" xmlns:xlink="http://www.w3.org/1999/xlink" width="213.775" height="138.184" viewBox="0 0 160.331 103.638"><path d="M94.34 51.819c0-23.484-19.037-42.52-42.521-42.52s-42.52 19.036-42.52 42.52 19.036 42.52 42.52 42.52 42.52-19.036 42.52-42.52zm-42.521 0" fill="#b3b3ff" fill-opacity=".5"/><path d="M151.033 51.819c0-23.484-19.037-42.52-42.52-42.52-23.484 0-42.52 19.036-42.52 42.52s19.036 42.52 42.52 42.52c23.483 0 42.52-19.036 42.52-42.52zm-42.52 0" fill="#ffb3b3" fill-opacity=".5"/><path stroke-width=".797" stroke-miterlimit="10" fill="none" stroke="#00f" d="M94.34 51.819c0-23.484-19.037-42.52-42.521-42.52s-42.52 19.036-42.52 42.52 19.036 42.52 42.52 42.52 42.52-19.036 42.52-42.52zm-42.521 0"/><symbol id="a"><path d="M.144.115C.104.048.065.034.021.031.009.03 0 .03 0 .011 0 .005.005 0 .013 0l.086.003.1-.003c.006 0 .019 0 .019.019C.218.03.209.031.202.031.179.033.155.041.155.066c0 .012.006.023.014.037l.076.128h.251L.512.064C.512.034.46.031.44.031c-.014 0-.024 0-.024-.02C.416 0 .428 0 .43 0l.125.003L.668 0c.006 0 .018 0 .018.02 0 .011-.01.011-.023.011-.062 0-.062.007-.065.036L.537.692C.535.712.535.716.518.716.502.716.498.709.492.699L.144.115m.12.147.197.33.032-.33H.264z"/></symbol><use xlink:href="#a" transform="matrix(9.9626 0 0 -9.9626 40.977 55.223)" fill="#00f"/><path stroke-width=".797" stroke-miterlimit="10" fill="none" stroke="red" d="M151.033 51.819c0-23.484-19.037-42.52-42.52-42.52-23.484 0-42.52 19.036-42.52 42.52s19.036 42.52 42.52 42.52c23.483 0 42.52-19.036 42.52-42.52zm-42.52 0"/><symbol id="b"><path d="M.118.078C.108.039.106.031.027.031.01.031 0 .031 0 .011 0 0 .009 0 .027 0h.357C.542 0 .66.118.66.216c0 .072-.058.13-.155.141.104.019.209.093.209.188 0 .074-.066.138-.186.138H.192c-.019 0-.029 0-.029-.02 0-.011.009-.011.028-.011.002 0 .021 0 .038-.002C.247.648.256.647.256.634L.252.615.118.078m.151.288.062.248C.34.649.342.652.385.652h.129C.602.652.623.593.623.549.623.461.537.366.415.366H.269M.224.031a.11.11 0 0 0-.022.001C.192.033.189.034.189.042c0 .003 0 .005.005.023l.069.279h.189C.548.344.567.27.567.227A.205.205 0 0 0 .36.031H.224z"/></symbol><use xlink:href="#b" transform="matrix(9.9626 0 0 -9.9626 112.65 55.223)" fill="red"/><use xlink:href="#a" transform="matrix(9.9626 0 0 -9.9626 67.215 55.223)"/><symbol id="c"><path d="M.556.402C.556.554.403.62.278.62.148.62 0 .55 0 .403V.036C0 .018 0 0 .02 0s.02.018.02.036v.362c0 .15.163.182.238.182A.305.305 0 0 0 .439.537C.516.488.516.424.516.397V.036c0-.018 0-.036.02-.036s.02.018.02.036v.366z"/></symbol><use xlink:href="#c" transform="matrix(9.9626 0 0 -9.9626 77.1 55.442)"/><use xlink:href="#b" transform="matrix(9.9626 0 0 -9.9626 85.826 55.223)"/></svg>