<svg xmlns="http://www.w3.org/2000/svg" xmlns:xlink="http://www.w3.org/1999/xlink" width="356.337" height="356.337" viewBox="0 0 267.253 267.253"><path d="M0 267.253h267.253V0H0z" fill="#fff"/><path stroke-width=".797" stroke-miterlimit="10" fill="none" stroke="#000" d="M93.94 173.312v-79.37h79.371v79.37zm79.371-79.37"/><path d="M135.02 133.627a1.395 1.395 0 1 0-2.789 0 1.395 1.395 0 0 0 2.79 0zm-1.394 0"/><path stroke-width=".399" stroke-miterlimit="10" fill="none" stroke="#000" d="M135.02 133.627a1.395 1.395 0 1 0-2.789 0 1.395 1.395 0 0 0 2.79 0zm-1.394 0"/><symbol id="a"><path d="M.366.696C.361.709.359.716.343.716S.324.71.319.696L.112.098C.094.047.054.032 0 .031V0c.023.001.066.003.102.003L.217 0v.031c-.05 0-.075.025-.075.051l.002.015.046.131h.247L.49.075.493.061c0-.03-.056-.03-.083-.03V0a2.274 2.274 0 0 0 .275 0v.031H.667c-.06 0-.074.007-.085.04L.366.696M.313.584.426.259H.201l.112.325z"/></symbol><symbol id="b"><path d="M.078.344V.076C.078.031.067.031 0 .031V0l.113.003L.225 0v.031c-.067 0-.078 0-.078.045V.26c0 .104.071.16.135.16C.345.42.356.366.356.309V.076C.356.031.345.031.278.031V0l.113.003L.503 0v.031c-.052 0-.077 0-.078.03v.191c0 .086 0 .117-.031.153C.38.422.347.442.289.442.216.442.169.399.141.337v.105L0 .431V.4C.07.4.078.393.078.344z"/></symbol><symbol id="c"><path d="M.083.229c0 .163.082.205.135.205C.227.434.29.433.325.397.284.394.278.364.278.351c0-.026.018-.046.046-.046C.35.305.37.322.37.352.37.42.294.459.217.459.092.459 0 .351 0 .227 0 .099.099 0 .215 0c.134 0 .166.12.166.13 0 .01-.01.01-.013.01C.359.14.357.136.355.13.326.037.261.025.224.025.171.025.083.068.083.229z"/></symbol><symbol id="d"><path d="M.078.076C.078.031.067.031 0 .031V0l.113.003L.225 0v.031c-.067 0-.078 0-.078.045V.26c0 .104.071.16.135.16C.345.42.356.366.356.309V.076C.356.031.345.031.278.031V0l.113.003L.503 0v.031c-.052 0-.077 0-.078.03v.191c0 .086 0 .117-.031.153C.38.422.347.442.289.442A.158.158 0 0 1 .144.344v.35L0 .683V.652C.07.652.078.645.078.596v-.52z"/></symbol><symbol id="e"><path d="M.443.225c0 .128-.1.234-.221.234C.097.459 0 .35 0 .225 0 .096.104 0 .221 0c.121 0 .222.098.222.225m-.221-.2a.13.13 0 0 0-.114.067C.083.136.083.197.083.233c0 .039 0 .093.024.137a.134.134 0 0 0 .114.067.131.131 0 0 0 .113-.065C.36.329.36.271.36.233c0-.036 0-.09-.022-.134A.129.129 0 0 0 .222.025z"/></symbol><symbol id="f"><path d="M.139.332v.11L0 .431V.4C.07.4.078.393.078.344V.076C.078.031.067.031 0 .031V0l.114.003c.04 0 .087 0 .127-.003v.031H.22C.146.031.144.042.144.078v.154c0 .099.042.188.118.188L.273.419A.043.043 0 0 1 .25.38C.25.352.271.337.293.337c.018 0 .043.012.043.044S.305.442.262.442C.189.442.153.375.139.332z"/></symbol><use xlink:href="#a" transform="matrix(9.9626 0 0 -9.9626 137.465 130.107)"/><use xlink:href="#b" transform="matrix(9.9626 0 0 -9.9626 144.937 130.107)"/><use xlink:href="#c" transform="matrix(9.9626 0 0 -9.9626 150.496 130.217)"/><use xlink:href="#d" transform="matrix(9.9626 0 0 -9.9626 154.62 130.107)"/><use xlink:href="#e" transform="matrix(9.9626 0 0 -9.9626 160.12 130.217)"/><use xlink:href="#f" transform="matrix(9.9626 0 0 -9.9626 165.101 130.107)"/><path stroke-width=".797" stroke-miterlimit="10" fill="none" stroke="#000" d="M93.94 93.942V14.57h79.371v79.37zM173.311 173.312v-79.37h79.371v79.37zM93.94 252.683v-79.37h79.371v79.37zM14.57 173.312v-79.37h79.37v79.37zm79.37-79.37"/><clipPath id="g"><path transform="matrix(1 0 0 -1 133.626 133.627)" d="M-39.685-39.685v79.37h79.37v-79.37zm79.37 79.37"/></clipPath><g clip-path="url(#g)"><path d="M232.84 133.627c0-54.795-44.42-99.213-99.214-99.213-54.795 0-99.213 44.418-99.213 99.213 0 54.795 44.418 99.213 99.213 99.213 54.795 0 99.213-44.418 99.213-99.213zm-99.214 0" fill="#ccf"/></g><path d="m133.626 133.627 39.685-39.685V42.697z" fill="#ffd9b3" fill-opacity=".8"/><path stroke-width=".797" stroke-miterlimit="10" fill="none" stroke="red" d="M232.84 133.627c0-54.795-44.42-99.213-99.214-99.213-54.795 0-99.213 44.418-99.213 99.213 0 54.795 44.418 99.213 99.213 99.213 54.795 0 99.213-44.418 99.213-99.213zm-99.214 0"/><path stroke-width=".797" stroke-dasharray="2.98883,2.98883" stroke-miterlimit="10" fill="none" stroke="#00b300" d="m133.626 133.627 90.926-39.683M133.626 133.627l90.926 39.683M133.626 133.627l39.683-90.926M133.626 133.627 93.943 42.701M133.626 133.627 42.7 93.944M133.626 133.627 42.7 173.31M133.626 133.627l-39.683 90.926M133.626 133.627l39.683 90.926"/><path stroke-width=".399" stroke-miterlimit="10" fill="none" stroke="#000" d="M134.084 133.627h98.297"/><path stroke-width=".319" stroke-linecap="round" stroke-linejoin="round" fill="none" stroke="#000" d="M135.28 135.221c-.1-.598-1.196-1.494-1.495-1.594.3-.1 1.395-.996 1.495-1.594M231.186 132.033c.1.598 1.195 1.494 1.494 1.594-.299.1-1.395.996-1.494 1.594"/><symbol id="h"><path d="M.399.223c0 .119-.082.219-.19.219A.176.176 0 0 1 .082.391v.195A.317.317 0 0 1 .167.573C.29.573.36.664.36.677.36.683.357.688.35.688c-.001 0-.003 0-.008-.003A.33.33 0 0 0 .073.684L.061.687c-.01 0-.01-.008-.01-.024V.367c0-.018 0-.026.014-.026.007 0 .009.003.013.009.011.016.048.07.129.07C.259.42.284.374.292.356A.308.308 0 0 0 .31.23C.31.195.31.135.286.093A.125.125 0 0 0 .179.028.156.156 0 0 0 .032.14C.035.139.038.138.049.138c.033 0 .05.025.05.049a.048.048 0 0 1-.05.049C.035.236 0 .229 0 .183 0 .097.069 0 .181 0a.22.22 0 0 1 .218.223z"/></symbol><symbol id="i"><path d="M.078.344V.076C.078.031.067.031 0 .031V0l.113.003L.225 0v.031c-.067 0-.078 0-.078.045V.26c0 .104.071.16.135.16C.345.42.356.366.356.309V.076C.356.031.345.031.278.031V0l.113.003L.503 0v.031c-.067 0-.078 0-.078.045V.26c0 .104.071.16.135.16C.623.42.634.366.634.309V.076C.634.031.623.031.556.031V0l.113.003L.781 0v.031c-.052 0-.077 0-.078.03v.191c0 .086 0 .117-.031.153C.658.422.625.442.567.442A.158.158 0 0 1 .422.344C.408.431.334.442.289.442.216.442.169.399.141.337v.105L0 .431V.4C.07.4.078.393.078.344z"/></symbol><use xlink:href="#h" transform="matrix(9.9626 0 0 -9.9626 176.258 130.326)"/><use xlink:href="#i" transform="matrix(9.9626 0 0 -9.9626 182.724 130.107)"/><path stroke-width=".797" stroke-miterlimit="10" fill="none" stroke="#00f" d="M153.469 133.627c0-7.889-4.677-15.03-11.258-17.902"/><path stroke-width=".6379617200000001" stroke-linecap="round" stroke-linejoin="round" fill="none" stroke="#00f" d="M142.807 118.246c.192-.764-.648-2.402-.952-2.676.408.037 2.18-.462 2.61-1.122"/><symbol id="j"><path d="M.413.511c0 .066-.018.205-.12.205C.154.716 0 .434 0 .205 0 .111.029 0 .12 0c.141 0 .293.287.293.511M.106.374c.017.064.037.144.077.215.027.049.064.105.109.105C.341.694.347.63.347.573c0-.049-.008-.1-.032-.199H.106m.2-.032a.893.893 0 0 0-.07-.203C.201.071.163.022.12.022.087.022.066.051.066.144c0 .042.006.1.032.198h.208z"/></symbol><use xlink:href="#j" transform="matrix(9.9626 0 0 -9.9626 149.425 125.29)"/></svg>