<svg xmlns="http://www.w3.org/2000/svg" xmlns:xlink="http://www.w3.org/1999/xlink" width="515.749" height="228.333" viewBox="0 0 386.812 171.25"><path d="M0 171.25h386.812V0H0z" fill="#fff"/><path d="M9.962 161.089V22.19h317.483V161.09zM327.445 22.19" fill="#fff"/><path stroke-width=".797" stroke-miterlimit="10" fill="none" stroke="#000" d="M29.805 101.561h277.09"/><path stroke-width=".638" stroke-linecap="round" stroke-linejoin="round" fill="none" stroke="#000" d="M305.34 99.489c.13.777 1.555 1.943 1.943 2.072-.388.13-1.813 1.295-1.942 2.072"/><symbol id="a"><path d="M.192.316h.169c.12 0 .228.081.228.181C.589.595.49.683.353.683H0V.652h.024C.101.652.103.641.103.605V.078C.103.042.101.031.024.031H0V0c.035.003.109.003.147.003C.185.003.26.003.295 0v.031H.271C.194.031.192.042.192.078v.238M.189.342v.27c0 .033.002.04.049.04h.089C.486.652.486.546.486.497c0-.047 0-.155-.159-.155H.189z"/></symbol><symbol id="b"><path d="M.139.332v.11L0 .431V.4C.07.4.078.393.078.344V.076C.078.031.067.031 0 .031V0l.114.003c.04 0 .087 0 .127-.003v.031H.22C.146.031.144.042.144.078v.154c0 .099.042.188.118.188L.273.419A.043.043 0 0 1 .25.38C.25.352.271.337.293.337c.018 0 .043.012.043.044S.305.442.262.442C.189.442.153.375.139.332z"/></symbol><symbol id="c"><path d="M.144.442.004.431V.4C.069.4.078.394.078.345V.076C.078.031.067.031 0 .031V0l.11.003C.145.003.18.001.214 0v.031c-.066 0-.07.005-.07.044v.367m.004.174a.052.052 0 0 1-.053.053.054.054 0 0 1-.053-.053c0-.027.022-.053.053-.053.028 0 .053.021.053.053z"/></symbol><symbol id="d"><path d="M.078.344V.076C.078.031.067.031 0 .031V0l.113.003L.225 0v.031c-.067 0-.078 0-.078.045V.26c0 .104.071.16.135.16C.345.42.356.366.356.309V.076C.356.031.345.031.278.031V0l.113.003L.503 0v.031c-.052 0-.077 0-.078.03v.191c0 .086 0 .117-.031.153C.38.422.347.442.289.442.216.442.169.399.141.337v.105L0 .431V.4C.07.4.078.393.078.344z"/></symbol><symbol id="e"><path d="M.083.229c0 .163.082.205.135.205C.227.434.29.433.325.397.284.394.278.364.278.351c0-.026.018-.046.046-.046C.35.305.37.322.37.352.37.42.294.459.217.459.092.459 0 .351 0 .227 0 .099.099 0 .215 0c.134 0 .166.12.166.13 0 .01-.01.01-.013.01C.359.14.357.136.355.13.326.037.261.025.224.025.171.025.083.068.083.229z"/></symbol><symbol id="f"><path d="M.144.57v.066L0 .625V.594c.071 0 .078-.006.078-.05V.076C.078.031.067.031 0 .031V0l.112.003L.225 0v.031c-.067 0-.078 0-.078.045V.253C.152.237.194.183.27.183c.119 0 .223.098.223.227 0 .127-.097.226-.209.226A.18.18 0 0 1 .144.57M.147.308v.223a.15.15 0 0 0 .129.08C.349.611.41.523.41.41.41.289.34.205.266.205c-.04 0-.078.02-.105.061C.147.287.147.288.147.308z"/></symbol><symbol id="g"><path d="M.291.087C.295.047.322.005.369.005.39.005.451.019.451.1v.056H.426V.1C.426.042.401.036.39.036c-.033 0-.037.045-.037.05v.2c0 .042 0 .081-.036.118A.191.191 0 0 1 .18.459C.098.459.029.412.029.346c0-.03.02-.047.046-.047.028 0 .046.02.046.046C.121.357.116.39.07.391c.027.035.076.046.108.046.049 0 .106-.039.106-.128V.272C.233.269.163.266.1.236.025.202 0 .15 0 .106 0 .025.097 0 .16 0c.066 0 .112.04.131.087M.284.251v-.1C.284.056.212.022.167.022c-.049 0-.09.035-.09.085 0 .055.042.138.207.144z"/></symbol><symbol id="h"><path d="M.144.694 0 .683V.652C.07.652.078.645.078.596v-.52C.078.031.067.031 0 .031V0l.111.003L.222 0v.031c-.067 0-.078 0-.078.045v.618z"/></symbol><symbol id="i"><path d="M.366.696C.361.709.359.716.343.716S.324.71.319.696L.112.098C.094.047.054.032 0 .031V0c.023.001.066.003.102.003L.217 0v.031c-.05 0-.075.025-.075.051l.002.015.046.131h.247L.49.075.493.061c0-.03-.056-.03-.083-.03V0a2.274 2.274 0 0 0 .275 0v.031H.667c-.06 0-.074.007-.085.04L.366.696M.313.584.426.259H.201l.112.325z"/></symbol><symbol id="j"><path d="M.275.235c.03.038.068.087.092.113A.153.153 0 0 0 .486.4v.031a1.123 1.123 0 0 0-.178 0V.4C.329.398.337.385.337.369A.057.057 0 0 0 .322.334L.26.256.182.357C.173.367.173.369.173.375.173.39.188.399.208.4v.031a1.66 1.66 0 0 0-.203 0V.4C.075.4.076.399.123.339L.222.21.128.091A.16.16 0 0 0 0 .031V0c.026.002.057.003.083.003L.178 0v.031C.156.034.149.047.149.062c0 .022.029.055.09.127l.076-.1C.323.078.336.062.336.056.336.047.327.032.3.031V0l.108.003C.435.003.474.002.504 0v.031C.45.031.432.033.409.062L.275.235z"/></symbol><symbol id="k"><path d="M.175.205C.197.201.279.185.279.113.279.062.244.022.166.022c-.084 0-.12.057-.139.142C.024.177.023.181.013.181 0 .181 0 .174 0 .156V.024C0 .007 0 0 .011 0c.005 0 .006.001.025.02.002.002.002.004.02.023A.15.15 0 0 1 .166 0c.115 0 .161.067.161.139 0 .053-.03.083-.042.095C.252.266.213.274.171.282.115.293.048.306.048.364.048.399.074.44.16.44.27.44.275.35.277.319.278.31.287.31.289.31c.013 0 .013.005.013.024v.101c0 .017 0 .024-.011.024-.005 0-.007 0-.02-.012A.129.129 0 0 0 .254.431C.216.459.175.459.16.459.038.459 0 .392 0 .336 0 .301.016.273.043.251.075.225.103.219.175.205z"/></symbol><use xlink:href="#a" transform="matrix(9.9626 0 0 -9.9626 311.667 104.052)"/><use xlink:href="#b" transform="matrix(9.9626 0 0 -9.9626 318.382 104.052)"/><use xlink:href="#c" transform="matrix(9.9626 0 0 -9.9626 322.337 104.052)"/><use xlink:href="#d" transform="matrix(9.9626 0 0 -9.9626 325.096 104.052)"/><use xlink:href="#e" transform="matrix(9.9626 0 0 -9.9626 330.655 104.162)"/><use xlink:href="#c" transform="matrix(9.9626 0 0 -9.9626 335.069 104.052)"/><use xlink:href="#f" transform="matrix(9.9626 0 0 -9.9626 337.789 105.985)"/><use xlink:href="#g" transform="matrix(9.9626 0 0 -9.9626 343.467 104.162)"/><use xlink:href="#h" transform="matrix(9.9626 0 0 -9.9626 348.359 104.052)"/><use xlink:href="#i" transform="matrix(9.9626 0 0 -9.9626 354.436 104.052)"/><use xlink:href="#j" transform="matrix(9.9626 0 0 -9.9626 361.709 104.052)"/><use xlink:href="#c" transform="matrix(9.9626 0 0 -9.9626 367.178 104.052)"/><use xlink:href="#k" transform="matrix(9.9626 0 0 -9.9626 369.948 104.162)"/><path stroke-width=".797" stroke-miterlimit="10" fill="none" stroke="#000" d="M188.56 101.561a119.064 119.064 0 0 0-42.528-91.201"/><path stroke-width=".399" stroke-dasharray="2.98883,2.98883" stroke-miterlimit="10" fill="none" stroke="#00f" d="M188.546 101.561c0-32.877-26.651-59.528-59.528-59.528-32.877 0-59.528 26.651-59.528 59.528 0 32.877 26.651 59.528 59.528 59.528 32.877 0 59.528-26.651 59.528-59.528zm-59.528 0"/><path d="M70.885 101.561a1.395 1.395 0 1 0-2.79 0 1.395 1.395 0 0 0 2.79 0zm-1.395 0"/><path stroke-width=".399" stroke-miterlimit="10" fill="none" stroke="#000" d="M70.885 101.561a1.395 1.395 0 1 0-2.79 0 1.395 1.395 0 0 0 2.79 0zm-1.395 0"/><symbol id="l"><path d="M.71.717a.01.01 0 0 1-.011.01C.696.727.695.726.684.715L.614.638C.605.652.559.727.448.727A.48.48 0 0 1 0 .274C0 .109.118 0 .271 0c.087 0 .163.04.216.086a.33.33 0 0 1 .11.176c0 .01-.01.01-.012.01C.579.272.574.27.572.262A.325.325 0 0 0 .471.104.289.289 0 0 0 .287.031c-.09 0-.196.052-.196.208a.57.57 0 0 0 .121.336.34.34 0 0 0 .244.121C.558.696.617.619.617.503.617.463.614.462.614.452c0-.01.011-.01.015-.01.013 0 .013.002.018.02L.71.717z"/></symbol><use xlink:href="#l" transform="matrix(9.9626 0 0 -9.9626 66.071 114.1)"/><path d="M189.954 101.561a1.395 1.395 0 1 0-2.79 0 1.395 1.395 0 0 0 2.79 0zm-1.394 0"/><path stroke-width=".399" stroke-miterlimit="10" fill="none" stroke="#000" d="M189.954 101.561a1.395 1.395 0 1 0-2.79 0 1.395 1.395 0 0 0 2.79 0zm-1.394 0"/><symbol id="m"><path d="M.572.591C.621.669.663.672.7.674c.012.001.013.018.013.019C.713.701.708.705.7.705L.618.702.519.705C.513.705.5.705.5.686.5.675.509.674.516.674.543.672.562.662.562.641.562.626.547.604.547.603L.24.115.172.644c0 .017.023.03.069.03.014 0 .025 0 .025.02 0 .009-.008.011-.014.011L.128.702.073.703.019.705C.012.705 0 .705 0 .686 0 .674.009.674.025.674.081.674.082.665.085.64L.164.023C.167.003.171 0 .184 0 .2 0 .204.005.212.018l.36.573z"/></symbol><use xlink:href="#m" transform="matrix(9.9626 0 0 -9.9626 185.103 114.1)"/><path d="M130.42 101.561a1.395 1.395 0 1 0-2.79 0 1.395 1.395 0 0 0 2.79 0zm-1.395 0"/><path stroke-width=".399" stroke-miterlimit="10" fill="none" stroke="#000" d="M130.42 101.561a1.395 1.395 0 1 0-2.79 0 1.395 1.395 0 0 0 2.79 0zm-1.395 0"/><symbol id="n"><path d="M.265.325h.097C.437.325.445.309.445.28c0-.007 0-.019-.007-.049A.036.036 0 0 1 .435.22c0-.008.006-.012.012-.012.01 0 .01.003.015.021l.055.217A.051.051 0 0 1 .52.462C.52.464.518.473.508.473S.497.468.493.452C.472.374.449.356.364.356H.273L.337.61c.009.035.01.039.054.039h.132c.123 0 .146-.033.146-.11 0-.023 0-.027-.003-.054L.664.467c0-.005.003-.012.012-.012.011 0 .012.006.014.025l.02.173C.713.68.708.68.683.68h-.49c-.02 0-.03 0-.03-.02 0-.011.009-.011.028-.011.037 0 .065 0 .065-.018 0-.004 0-.006-.005-.024L.119.078C.109.039.107.031.028.031.011.031 0 .031 0 .012 0 0 .012 0 .015 0l.132.003L.296 0c.009 0 .021 0 .021.019 0 .008-.006.01-.006.011L.283.031c-.022 0-.027 0-.052.002C.202.036.199.04.199.053c0 .002 0 .008.004.023l.062.249z"/></symbol><use xlink:href="#n" transform="matrix(9.9626 0 0 -9.9626 125.508 113.881)"/><path d="M269.334 101.561a1.395 1.395 0 1 0-2.79 0 1.395 1.395 0 0 0 2.79 0zm-1.394 0"/><path stroke-width=".399" stroke-miterlimit="10" fill="none" stroke="#000" d="M269.334 101.561a1.395 1.395 0 1 0-2.79 0 1.395 1.395 0 0 0 2.79 0zm-1.394 0"/><symbol id="o"><path d="M.118.078C.108.039.106.031.027.031.01.031 0 .031 0 .011 0 0 .009 0 .027 0h.357C.542 0 .66.118.66.216c0 .072-.058.13-.155.141.104.019.209.093.209.188 0 .074-.066.138-.186.138H.192c-.019 0-.029 0-.029-.02 0-.011.009-.011.028-.011.002 0 .021 0 .038-.002C.247.648.256.647.256.634L.252.615.118.078m.151.288.062.248C.34.649.342.652.385.652h.129C.602.652.623.593.623.549.623.461.537.366.415.366H.269M.224.031a.11.11 0 0 0-.022.001C.192.033.189.034.189.042c0 .003 0 .005.005.023l.069.279h.189C.548.344.567.27.567.227A.205.205 0 0 0 .36.031H.224z"/></symbol><use xlink:href="#o" transform="matrix(9.9626 0 0 -9.9626 264.327 113.881)"/><path d="M155.944 101.561a1.395 1.395 0 1 0-2.79 0 1.395 1.395 0 0 0 2.79 0zm-1.395 0"/><path stroke-width=".399" stroke-miterlimit="10" fill="none" stroke="#000" d="M155.944 101.561a1.395 1.395 0 1 0-2.79 0 1.395 1.395 0 0 0 2.79 0zm-1.395 0"/><use xlink:href="#o" transform="matrix(9.9626 0 0 -9.9626 149.54 114.563)"/><symbol id="p"><path d="M.242.431a.07.07 0 0 1 .009.032c0 .031-.028.055-.059.055C.154.518.142.487.137.471L.005.038A.142.142 0 0 1 0 .022C0 .01.031 0 .039 0c.007 0 .008.002.015.017l.188.414z"/></symbol><use xlink:href="#p" transform="matrix(6.9738 0 0 -6.9738 157.514 110.662)"/><path stroke-width=".399" stroke-miterlimit="10" fill="none" stroke="red" d="M265.489 101.561h-108.49"/><path stroke-width=".319" stroke-linecap="round" stroke-linejoin="round" fill="none" stroke="red" d="M264.293 99.967c.1.598 1.196 1.494 1.495 1.594-.3.1-1.395.996-1.495 1.594M158.195 103.155c-.1-.598-1.195-1.494-1.494-1.594.299-.1 1.395-.996 1.494-1.594"/><symbol id="q"><path d="M0 .364C0 .157.162 0 .348 0c.163 0 .261.139.261.255 0 .01 0 .017-.013.017C.585.272.585.266.584.256.576.113.469.031.36.031.299.031.103.065.103.363c0 .299.195.333.256.333.109 0 .198-.091.218-.237C.579.445.579.442.593.442c.016 0 .016.003.016.024v.237c0 .017 0 .024-.011.024-.004 0-.008 0-.016-.012L.532.641C.495.677.444.727.348.727A.357.357 0 0 1 0 .364z"/></symbol><symbol id="r"><path d="M.359.09V0l.144.011v.031c-.07 0-.078.007-.078.056v.355L.278.442V.411c.07 0 .078-.007.078-.056V.177C.356.09.308.022.235.022.151.022.147.069.147.121v.332L0 .442V.411C.078.411.078.408.078.319v-.15C.078.091.078 0 .23 0c.056 0 .1.028.129.09z"/></symbol><symbol id="s"><path d="M.397.344C.406.367.423.41.489.411v.031a.94.94 0 0 0-.162 0V.411C.364.41.375.387.375.368.375.359.373.355.369.344L.267.089.155.368C.149.381.149.383.149.385c0 .026.039.026.057.026v.031L.097.439C.07.439.03.44 0 .442V.411C.063.411.067.405.08.374L.224.019C.23.005.232 0 .245 0c.013 0 .017.009.021.019l.131.325z"/></symbol><symbol id="t"><path d="M.084.263c.006.149.09.174.124.174.103 0 .113-.135.113-.174H.084M.083.242h.279c.022 0 .025 0 .025.021 0 .099-.054.196-.179.196C.092.459 0 .356 0 .231 0 .097.105 0 .22 0a.17.17 0 0 1 .167.13c0 .01-.008.012-.013.012C.365.142.363.136.361.128.326.025.236.025.226.025c-.05 0-.09.03-.113.067-.03.048-.03.114-.03.15z"/></symbol><symbol id="u"><path d="M.443.225c0 .128-.1.234-.221.234C.097.459 0 .35 0 .225 0 .096.104 0 .221 0c.121 0 .222.098.222.225m-.221-.2a.13.13 0 0 0-.114.067C.083.136.083.197.083.233c0 .039 0 .093.024.137a.134.134 0 0 0 .114.067.131.131 0 0 0 .113-.065C.36.329.36.271.36.233c0-.036 0-.09-.022-.134A.129.129 0 0 0 .222.025z"/></symbol><use xlink:href="#q" transform="matrix(9.9626 0 0 -9.9626 160.349 96.276)" fill="red"/><use xlink:href="#c" transform="matrix(9.9626 0 0 -9.9626 167.313 96.057)" fill="red"/><use xlink:href="#b" transform="matrix(9.9626 0 0 -9.9626 170.033 96.057)" fill="red"/><use xlink:href="#e" transform="matrix(9.9626 0 0 -9.9626 173.998 96.167)" fill="red"/><use xlink:href="#r" transform="matrix(9.9626 0 0 -9.9626 178.401 96.167)" fill="red"/><use xlink:href="#h" transform="matrix(9.9626 0 0 -9.9626 183.95 96.057)" fill="red"/><use xlink:href="#g" transform="matrix(9.9626 0 0 -9.9626 186.81 96.167)" fill="red"/><use xlink:href="#b" transform="matrix(9.9626 0 0 -9.9626 191.651 96.057)" fill="red"/><use xlink:href="#c" transform="matrix(9.9626 0 0 -9.9626 198.924 96.057)" fill="red"/><use xlink:href="#d" transform="matrix(9.9626 0 0 -9.9626 201.684 96.057)" fill="red"/><use xlink:href="#s" transform="matrix(9.9626 0 0 -9.9626 206.814 96.167)" fill="red"/><use xlink:href="#t" transform="matrix(9.9626 0 0 -9.9626 211.895 96.167)" fill="red"/><use xlink:href="#b" transform="matrix(9.9626 0 0 -9.9626 216.319 96.057)" fill="red"/><use xlink:href="#k" transform="matrix(9.9626 0 0 -9.9626 220.274 96.167)" fill="red"/><use xlink:href="#c" transform="matrix(9.9626 0 0 -9.9626 224.2 96.057)" fill="red"/><use xlink:href="#u" transform="matrix(9.9626 0 0 -9.9626 226.919 96.167)" fill="red"/><use xlink:href="#d" transform="matrix(9.9626 0 0 -9.9626 231.94 96.057)" fill="red"/><path stroke-width=".797" stroke-miterlimit="10" fill="none" stroke="#000" d="M267.94 101.561V42.734"/><path stroke-width=".638" stroke-linecap="round" stroke-linejoin="round" fill="none" stroke="#000" d="M265.867 44.288c.777-.13 1.943-1.554 2.072-1.943.13.389 1.296 1.813 2.073 1.943"/><symbol id="v"><path d="M.144.115C.104.048.065.034.021.031.009.03 0 .03 0 .011 0 .005.005 0 .013 0l.086.003.1-.003c.006 0 .019 0 .019.019C.218.03.209.031.202.031.179.033.155.041.155.066c0 .012.006.023.014.037l.076.128h.251L.512.064C.512.034.46.031.44.031c-.014 0-.024 0-.024-.02C.416 0 .428 0 .43 0l.125.003L.668 0c.006 0 .018 0 .018.02 0 .011-.01.011-.023.011-.062 0-.062.007-.065.036L.537.692C.535.712.535.716.518.716.502.716.498.709.492.699L.144.115m.12.147.197.33.032-.33H.264z"/></symbol><use xlink:href="#v" transform="matrix(9.9626 0 0 -9.9626 271.806 45.431)"/><symbol id="w"><path d="M.197.605c0 .036.003.047.082.047h.026v.031C.27.68.191.68.153.68.114.68.035.68 0 .683V.652h.026C.105.652.108.641.108.605V.078C.108.042.105.031.026.031H0V0c.035.003.114.003.152.003C.191.003.27.003.305 0v.031H.279C.2.031.197.042.197.078v.527z"/></symbol><use xlink:href="#w" transform="matrix(9.9626 0 0 -9.9626 96.585 38.514)" fill="#00f"/><use xlink:href="#d" transform="matrix(9.9626 0 0 -9.9626 100.221 38.514)" fill="#00f"/><use xlink:href="#s" transform="matrix(9.9626 0 0 -9.9626 105.352 38.624)" fill="#00f"/><use xlink:href="#t" transform="matrix(9.9626 0 0 -9.9626 110.423 38.624)" fill="#00f"/><use xlink:href="#b" transform="matrix(9.9626 0 0 -9.9626 114.846 38.514)" fill="#00f"/><use xlink:href="#k" transform="matrix(9.9626 0 0 -9.9626 118.802 38.624)" fill="#00f"/><use xlink:href="#c" transform="matrix(9.9626 0 0 -9.9626 122.737 38.514)" fill="#00f"/><use xlink:href="#u" transform="matrix(9.9626 0 0 -9.9626 125.447 38.624)" fill="#00f"/><use xlink:href="#d" transform="matrix(9.9626 0 0 -9.9626 130.468 38.514)" fill="#00f"/><use xlink:href="#e" transform="matrix(9.9626 0 0 -9.9626 139.354 38.624)" fill="#00f"/><use xlink:href="#c" transform="matrix(9.9626 0 0 -9.9626 143.768 38.514)" fill="#00f"/><use xlink:href="#b" transform="matrix(9.9626 0 0 -9.9626 146.488 38.514)" fill="#00f"/><use xlink:href="#e" transform="matrix(9.9626 0 0 -9.9626 150.453 38.624)" fill="#00f"/><use xlink:href="#h" transform="matrix(9.9626 0 0 -9.9626 154.866 38.514)" fill="#00f"/><use xlink:href="#t" transform="matrix(9.9626 0 0 -9.9626 157.586 38.624)" fill="#00f"/></svg>