<svg xmlns="http://www.w3.org/2000/svg" xmlns:xlink="http://www.w3.org/1999/xlink" width="311.873" height="408.7" viewBox="0 0 233.905 306.525"><path stroke-width=".797" stroke-miterlimit="10" fill="none" stroke="#000" d="M230.16 132.335c0-62.623-50.764-113.387-113.387-113.387S3.386 69.712 3.386 132.335 54.15 245.722 116.773 245.722 230.16 194.958 230.16 132.335zm-113.387 0"/><path stroke-width=".797" stroke-miterlimit="10" fill="none" stroke="#000" d="M214.97 75.641 60.08 34.14l56.693 211.583zM60.08 34.139l56.693-15.191"/><path stroke-width=".399" stroke-miterlimit="10" fill="none" stroke="#929292" d="M116.773 245.722V18.948"/><symbol id="a"><path d="M.077.077.183.18c.156.138.216.192.216.292 0 .114-.09.194-.212.194A.185.185 0 0 1 0 .485C0 .429.05.429.053.429c.017 0 .052.012.052.053a.05.05 0 0 1-.053.052L.039.533a.144.144 0 0 0 .135.102C.265.635.308.554.308.472c0-.08-.05-.159-.105-.221L.011.037C0 .026 0 .024 0 0h.371l.028.174H.374C.369.144.362.1.352.085.345.077.279.077.257.077h-.18z"/></symbol><use xlink:href="#a" transform="matrix(9.9626 0 0 -9.9626 120.791 135.739)" fill="#929292"/><symbol id="b"><path d="M.334.636C.34.66.343.67.362.673l.061.001c.071 0 .182 0 .182-.099A.228.228 0 0 0 .55.433C.524.407.471.375.381.375H.269l.065.261M.478.362c.101.022.22.092.22.193 0 .086-.09.15-.221.15H.192c-.02 0-.029 0-.029-.02 0-.011.009-.011.028-.011.002 0 .021 0 .038-.002C.247.67.256.669.256.656L.252.637.118.1C.108.061.106.053.027.053.009.053 0 .053 0 .033 0 .022.012.022.014.022L.14.025.267.022c.008 0 .02 0 .02.02 0 .011-.009.011-.028.011-.037 0-.065 0-.065.018 0 .006.002.011.003.017l.066.265h.119C.473.353.491.297.491.262A.382.382 0 0 0 .477.193.46.46 0 0 1 .461.108C.461 0 .581 0 .594 0c.085 0 .12.101.12.115 0 .012-.011.012-.012.012C.693.127.691.12.689.113.664.039.621.022.598.022c-.033 0-.04.022-.04.061 0 .031.006.082.01.114a.373.373 0 0 1 .004.047c0 .077-.067.108-.094.118z"/></symbol><use xlink:href="#b" transform="matrix(9.9626 0 0 -9.9626 125.682 135.958)" fill="#929292"/><path stroke-width=".399" stroke-miterlimit="10" fill="none" stroke="#000" d="M204.017 72.707a11.339 11.339 0 0 0 5.283 12.754"/><symbol id="c"><path d="M.436.247c0 .157-.093.206-.167.206C.132.453 0 .31 0 .169 0 .076.06 0 .162 0c.063 0 .135.023.211.084C.386.031.419 0 .464 0c.053 0 .084.055.084.071 0 .007-.006.01-.012.01-.007 0-.01-.003-.013-.01C.505.022.469.022.467.022.436.022.436.1.436.124c0 .021 0 .023.01.035a.578.578 0 0 1 .115.235c0 .002-.001.01-.012.01-.01 0-.01-.003-.015-.021A.59.59 0 0 0 .436.185v.062M.369.11A.311.311 0 0 0 .164.022c-.06 0-.09.045-.09.109C.074.18.1.288.132.339c.047.073.101.092.136.092C.367.431.367.3.367.222c0-.037 0-.095.002-.112z"/></symbol><use xlink:href="#c" transform="matrix(9.9626 0 0 -9.9626 198.554 83.537)"/><path stroke-width=".399" stroke-miterlimit="10" fill="none" stroke="#000" d="M105.82 21.882a11.34 11.34 0 0 0 10.953 8.404"/><use xlink:href="#c" transform="matrix(9.9626 0 0 -9.9626 105.004 32.898)"/><path stroke-width=".399" stroke-miterlimit="10" fill="none" stroke="#000" d="m62.28 42.353 8.215-2.2-2.201-8.215"/><path d="M217.083 75.641a2.113 2.113 0 1 0-4.227 0 2.113 2.113 0 0 0 4.227 0zm-2.114 0"/><symbol id="d"><path d="M.144.115C.104.048.065.034.021.031.009.03 0 .03 0 .011 0 .005.005 0 .013 0l.086.003.1-.003c.006 0 .019 0 .019.019C.218.03.209.031.202.031.179.033.155.041.155.066c0 .012.006.023.014.037l.076.128h.251L.512.064C.512.034.46.031.44.031c-.014 0-.024 0-.024-.02C.416 0 .428 0 .43 0l.125.003L.668 0c.006 0 .018 0 .018.02 0 .011-.01.011-.023.011-.062 0-.062.007-.065.036L.537.692C.535.712.535.716.518.716.502.716.498.709.492.699L.144.115m.12.147.197.33.032-.33H.264z"/></symbol><use xlink:href="#d" transform="matrix(9.9626 0 0 -9.9626 220.472 70.487)"/><path d="M62.193 34.139a2.113 2.113 0 1 0-4.227 0 2.113 2.113 0 0 0 4.227 0zm-2.114 0"/><symbol id="e"><path d="M.118.078C.108.039.106.031.027.031.01.031 0 .031 0 .011 0 0 .009 0 .027 0h.357C.542 0 .66.118.66.216c0 .072-.058.13-.155.141.104.019.209.093.209.188 0 .074-.066.138-.186.138H.192c-.019 0-.029 0-.029-.02 0-.011.009-.011.028-.011.002 0 .021 0 .038-.002C.247.648.256.647.256.634L.252.615.118.078m.151.288.062.248C.34.649.342.652.385.652h.129C.602.652.623.593.623.549.623.461.537.366.415.366H.269M.224.031a.11.11 0 0 0-.022.001C.192.033.189.034.189.042c0 .003 0 .005.005.023l.069.279h.189C.548.344.567.27.567.227A.205.205 0 0 0 .36.031H.224z"/></symbol><use xlink:href="#e" transform="matrix(9.9626 0 0 -9.9626 47.286 28.985)"/><path d="M118.886 245.722a2.113 2.113 0 1 0-4.226 0 2.113 2.113 0 0 0 4.226 0zm-2.113 0"/><symbol id="f"><path d="M.71.717a.01.01 0 0 1-.011.01C.696.727.695.726.684.715L.614.638C.605.652.559.727.448.727A.48.48 0 0 1 0 .274C0 .109.118 0 .271 0c.087 0 .163.04.216.086a.33.33 0 0 1 .11.176c0 .01-.01.01-.012.01C.579.272.574.27.572.262A.325.325 0 0 0 .471.104.289.289 0 0 0 .287.031c-.09 0-.196.052-.196.208a.57.57 0 0 0 .121.336.34.34 0 0 0 .244.121C.558.696.617.619.617.503.617.463.614.462.614.452c0-.01.011-.01.015-.01.013 0 .013.002.018.02L.71.717z"/></symbol><use xlink:href="#f" transform="matrix(9.9626 0 0 -9.9626 113.354 258.58)"/><path d="M118.886 132.335a2.113 2.113 0 1 0-4.226 0 2.113 2.113 0 0 0 4.226 0zm-2.113 0"/><symbol id="g"><path d="M.691.458c0 .161-.106.269-.255.269C.22.727 0 .5 0 .267 0 .101.112 0 .256 0c.212 0 .435.219.435.458M.262.026C.163.026.093.107.093.239c0 .044.014.19.091.307C.253.65.351.702.43.702.512.702.602.646.602.497A.609.609 0 0 0 .476.146C.428.085.346.026.262.026z"/></symbol><use xlink:href="#g" transform="matrix(9.9626 0 0 -9.9626 104.23 144.517)"/><path d="M118.886 18.948a2.113 2.113 0 1 0-4.226 0 2.113 2.113 0 0 0 4.226 0zm-2.113 0"/><symbol id="h"><path d="M.119.078C.109.039.107.031.028.031.011.031 0 .031 0 .012 0 0 .009 0 .028 0h.331c.208 0 .405.211.405.43 0 .141-.085.253-.235.253H.193c-.019 0-.03 0-.03-.019 0-.012.009-.012.029-.012A.59.59 0 0 0 .235.65C.251.648.257.645.257.634L.253.615.119.078m.216.536c.009.035.011.038.054.038h.107C.594.652.677.599.677.467A.611.611 0 0 0 .572.144.3.3 0 0 0 .341.031H.228L.206.032C.196.033.193.034.193.042c0 .003 0 .005.005.023l.137.549z"/></symbol><use xlink:href="#h" transform="matrix(9.9626 0 0 -9.9626 112.91 13.117)"/><symbol id="i"><path d="M.333.389C.315.426.286.453.241.453.124.453 0 .306 0 .16 0 .066.055 0 .133 0c.02 0 .07.004.13.075A.09.09 0 0 1 .354 0c.035 0 .058.023.074.055.017.036.03.097.03.099 0 .01-.009.01-.012.01C.436.164.435.16.432.146.415.081.397.022.356.022c-.027 0-.03.026-.03.046 0 .022.002.03.013.074l.022.09.036.14C.404.4.404.402.404.406c0 .017-.012.027-.029.027C.351.433.336.411.333.389M.268.13C.263.112.263.11.248.093.204.038.163.022.135.022c-.05 0-.064.055-.064.094 0 .05.032.173.055.219.031.059.076.096.116.096.065 0 .079-.082.079-.088C.321.337.319.331.318.326L.268.13z"/></symbol><use xlink:href="#i" transform="matrix(9.9626 0 0 -9.9626 80.04 142.185)"/><path d="M20.896 303.34H212.65v-29.072H20.896z" fill="#fff"/><path stroke-width=".399" stroke-miterlimit="10" fill="none" stroke="#000" d="M20.896 303.34H212.65v-29.072H20.896z"/><symbol id="j"><path d="M.549.258H.524C.513.156.499.031.323.031H.241c-.047 0-.049.007-.049.04v.533c0 .034 0 .048.095.048H.32v.031C.284.68.193.68.152.68.113.68.035.68 0 .683V.652h.024C.101.652.103.641.103.605V.078C.103.042.101.031.024.031H0V0h.521l.028.258z"/></symbol><symbol id="k"><path d="M.291.087C.295.047.322.005.369.005.39.005.451.019.451.1v.056H.426V.1C.426.042.401.036.39.036c-.033 0-.037.045-.037.05v.2c0 .042 0 .081-.036.118A.191.191 0 0 1 .18.459C.098.459.029.412.029.346c0-.03.02-.047.046-.047.028 0 .046.02.046.046C.121.357.116.39.07.391c.027.035.076.046.108.046.049 0 .106-.039.106-.128V.272C.233.269.163.266.1.236.025.202 0 .15 0 .106 0 .025.097 0 .16 0c.066 0 .112.04.131.087M.284.251v-.1C.284.056.212.022.167.022c-.049 0-.09.035-.09.085 0 .055.042.138.207.144z"/></symbol><symbol id="l"><path d="M.601.347C.619.397.65.41.685.411v.031a.89.89 0 0 0-.166 0V.411C.555.41.577.392.577.363c0-.006 0-.008-.005-.021L.481.086.382.365C.378.377.377.379.377.384c0 .027.039.027.059.027v.031L.332.439C.302.439.273.44.243.442V.411C.28.411.296.409.306.396.311.39.322.36.329.341L.243.099.148.366C.143.378.143.38.143.384c0 .027.039.027.059.027v.031L.093.439 0 .442V.411C.05.411.062.408.074.376L.2.022C.205.008.208 0 .221 0c.013 0 .015.006.02.02l.101.283.102-.284C.448.008.451 0 .464 0c.013 0 .016.009.02.019l.117.328z"/></symbol><symbol id="m"><path d="M.443.225c0 .128-.1.234-.221.234C.097.459 0 .35 0 .225 0 .096.104 0 .221 0c.121 0 .222.098.222.225m-.221-.2a.13.13 0 0 0-.114.067C.083.136.083.197.083.233c0 .039 0 .093.024.137a.134.134 0 0 0 .114.067.131.131 0 0 0 .113-.065C.36.329.36.271.36.233c0-.036 0-.09-.022-.134A.129.129 0 0 0 .222.025z"/></symbol><symbol id="n"><path d="M.142.431v.116c0 .088.048.136.092.136.003 0 .018 0 .033-.007a.044.044 0 0 1-.03-.042C.237.611.253.591.28.591c.029 0 .044.02.044.044 0 .037-.037.07-.09.07A.155.155 0 0 1 .079.546V.431H0V.4h.079V.076C.079.031.068.031.001.031V0l.114.003c.04 0 .087 0 .127-.003v.031H.221C.147.031.145.042.145.078V.4h.114v.031H.142z"/></symbol><symbol id="o"><path d="M.293.41.165.441a.13.13 0 0 0 .031.258C.363.699.385.535.391.49.392.484.392.478.403.478c.013 0 .013.005.013.024v.201c0 .017 0 .024-.011.024C.398.727.397.726.39.714L.355.657c-.03.029-.071.07-.16.07A.193.193 0 0 1 .131.35C.142.346.193.334.263.317.29.31.32.303.348.266A.146.146 0 0 0 .379.174C.379.103.329.031.245.031a.241.241 0 0 0-.158.054.202.202 0 0 0-.062.154c-.001.01-.009.01-.012.01C0 .249 0 .242 0 .224v-.2C0 .007 0 0 .011 0c.007 0 .008.002.015.013L.062.07A.25.25 0 0 1 .246 0c.117 0 .197.098.197.208 0 .1-.066.182-.15.202z"/></symbol><symbol id="p"><path d="M.144.442.004.431V.4C.069.4.078.394.078.345V.076C.078.031.067.031 0 .031V0l.11.003C.145.003.18.001.214 0v.031c-.066 0-.07.005-.07.044v.367m.004.174a.052.052 0 0 1-.053.053.054.054 0 0 1-.053-.053c0-.027.022-.053.053-.053.028 0 .053.021.053.053z"/></symbol><symbol id="q"><path d="M.078.344V.076C.078.031.067.031 0 .031V0l.113.003L.225 0v.031c-.067 0-.078 0-.078.045V.26c0 .104.071.16.135.16C.345.42.356.366.356.309V.076C.356.031.345.031.278.031V0l.113.003L.503 0v.031c-.052 0-.077 0-.078.03v.191c0 .086 0 .117-.031.153C.38.422.347.442.289.442.216.442.169.399.141.337v.105L0 .431V.4C.07.4.078.393.078.344z"/></symbol><symbol id="r"><path d="M.084.263c.006.149.09.174.124.174.103 0 .113-.135.113-.174H.084M.083.242h.279c.022 0 .025 0 .025.021 0 .099-.054.196-.179.196C.092.459 0 .356 0 .231 0 .097.105 0 .22 0a.17.17 0 0 1 .167.13c0 .01-.008.012-.013.012C.365.142.363.136.361.128.326.025.236.025.226.025c-.05 0-.09.03-.113.067-.03.048-.03.114-.03.15z"/></symbol><symbol id="s"><path d="M.175.205C.197.201.279.185.279.113.279.062.244.022.166.022c-.084 0-.12.057-.139.142C.024.177.023.181.013.181 0 .181 0 .174 0 .156V.024C0 .007 0 0 .011 0c.005 0 .006.001.025.02.002.002.002.004.02.023A.15.15 0 0 1 .166 0c.115 0 .161.067.161.139 0 .053-.03.083-.042.095C.252.266.213.274.171.282.115.293.048.306.048.364.048.399.074.44.16.44.27.44.275.35.277.319.278.31.287.31.289.31c.013 0 .013.005.013.024v.101c0 .017 0 .024-.011.024-.005 0-.007 0-.02-.012A.129.129 0 0 0 .254.431C.216.459.175.459.16.459.038.459 0 .392 0 .336 0 .301.016.273.043.251.075.225.103.219.175.205z"/></symbol><symbol id="t"><path d="M.106.378a.053.053 0 0 1-.053.053A.053.053 0 0 1 0 .378C0 .349.024.325.053.325c.029 0 .053.024.053.053m0-.325a.053.053 0 0 1-.053.053A.053.053 0 0 1 0 .053C0 .024.024 0 .053 0c.029 0 .053.024.053.053z"/></symbol><use xlink:href="#j" transform="matrix(9.9626 0 0 -9.9626 24.547 291.245)"/><use xlink:href="#k" transform="matrix(9.9626 0 0 -9.9626 30.863 291.355)"/><use xlink:href="#l" transform="matrix(9.9626 0 0 -9.9626 35.326 291.355)"/><use xlink:href="#m" transform="matrix(9.9626 0 0 -9.9626 45.946 291.355)"/><use xlink:href="#n" transform="matrix(9.9626 0 0 -9.9626 50.978 291.245)"/><use xlink:href="#o" transform="matrix(9.9626 0 0 -9.9626 57.573 291.464)"/><use xlink:href="#p" transform="matrix(9.9626 0 0 -9.9626 62.883 291.245)"/><use xlink:href="#q" transform="matrix(9.9626 0 0 -9.9626 65.642 291.245)"/><use xlink:href="#r" transform="matrix(9.9626 0 0 -9.9626 71.142 291.355)"/><use xlink:href="#s" transform="matrix(9.9626 0 0 -9.9626 75.615 291.355)"/><use xlink:href="#t" transform="matrix(9.9626 0 0 -9.9626 80.068 291.245)"/><use xlink:href="#i" transform="matrix(9.9626 0 0 -9.9626 95.514 284.616)"/><path stroke-width=".398" stroke-miterlimit="10" fill="none" stroke="#000" d="M87.597 288.755h20.302"/><use xlink:href="#s" transform="matrix(9.9626 0 0 -9.9626 87.926 298.189)"/><use xlink:href="#p" transform="matrix(9.9626 0 0 -9.9626 91.851 298.079)"/><use xlink:href="#q" transform="matrix(9.9626 0 0 -9.9626 94.61 298.079)"/><use xlink:href="#c" transform="matrix(9.9626 0 0 -9.9626 101.897 298.189)"/><symbol id="u"><path d="M.631.194c.015 0 .034 0 .034.02s-.019.02-.033.02H.033C.019.234 0 .234 0 .214s.019-.02.034-.02h.597M.632 0c.014 0 .033 0 .033.02S.646.04.631.04H.034C.019.04 0 .04 0 .02S.019 0 .033 0h.599z"/></symbol><use xlink:href="#u" transform="matrix(9.9626 0 0 -9.9626 112.42 289.92)"/><symbol id="v"><path d="M.192.694c0 .001 0 .011-.013.011C.156.705.083.697.057.695.049.694.038.693.038.675c0-.012.009-.012.024-.012.048 0 .05-.007.05-.017C.112.639.103.605.098.584L.016.258C.004.208 0 .192 0 .157 0 .062.053 0 .127 0c.118 0 .241.149.241.293 0 .091-.053.16-.133.16C.189.453.148.424.118.393l.074.301M.098.316C.104.338.104.34.113.351c.049.065.094.08.12.08.036 0 .063-.03.063-.094A.71.71 0 0 0 .245.125C.212.058.166.022.127.022.093.022.06.049.06.123c0 .019 0 .038.016.101l.022.092z"/></symbol><use xlink:href="#v" transform="matrix(9.9626 0 0 -9.9626 131.931 284.616)"/><path stroke-width=".398" stroke-miterlimit="10" fill="none" stroke="#000" d="M123.574 288.755h20.053"/><use xlink:href="#s" transform="matrix(9.9626 0 0 -9.9626 123.903 298.189)"/><use xlink:href="#p" transform="matrix(9.9626 0 0 -9.9626 127.828 298.079)"/><use xlink:href="#q" transform="matrix(9.9626 0 0 -9.9626 130.588 298.079)"/><symbol id="w"><path d="M.546.763A.133.133 0 0 1 .41.9.175.175 0 0 1 .289.858.427.427 0 0 1 .16.645L.001.01C0 .006.005 0 .013 0s.011.002.012.005l.07.276C.114.221.158.184.231.184c.073 0 .148.035.193.079.048.046.08.11.08.184a.18.18 0 0 1-.073.149c.058.033.115.095.115.167M.366.597A.118.118 0 0 0 .318.59C.304.59.284.589.274.594c.002.01.038.008.049.008.021 0 .03 0 .043-.005M.49.786A.21.21 0 0 0 .4.613a.198.198 0 0 1-.077.012C.302.625.246.626.246.593.245.565.297.568.315.568a.18.18 0 0 1 .082.013C.435.545.44.514.441.468a.32.32 0 0 0-.05-.172.217.217 0 0 0-.163-.09C.152.206.114.264.114.335c0 .01 0 .025.005.044l.064.253c.022.086.094.245.214.245C.455.877.49.846.49.786z"/></symbol><use xlink:href="#w" transform="matrix(9.9626 0 0 -9.9626 137.755 300.012)"/><use xlink:href="#u" transform="matrix(9.9626 0 0 -9.9626 148.148 289.92)"/><symbol id="x"><path d="M.355.391c-.016 0-.03 0-.044-.014A.054.054 0 0 1 .293.338C.293.314.311.303.33.303c.029 0 .056.024.056.064 0 .049-.047.086-.118.086C.133.453 0 .31 0 .169 0 .079.058 0 .162 0c.143 0 .227.106.227.118 0 .006-.006.013-.012.013C.372.131.37.129.364.121.285.022.176.022.164.022c-.063 0-.09.049-.09.109 0 .041.02.138.054.2.031.057.086.1.141.1.034 0 .072-.013.086-.04z"/></symbol><use xlink:href="#x" transform="matrix(9.9626 0 0 -9.9626 167.356 284.616)"/><path stroke-width=".398" stroke-miterlimit="10" fill="none" stroke="#000" d="M159.302 288.755h19.604"/><use xlink:href="#s" transform="matrix(9.9626 0 0 -9.9626 159.63 298.189)"/><use xlink:href="#p" transform="matrix(9.9626 0 0 -9.9626 163.556 298.079)"/><use xlink:href="#q" transform="matrix(9.9626 0 0 -9.9626 166.316 298.079)"/><symbol id="y"><path d="M.023.469a.167.167 0 0 0 .159.116C.333.585.344.41.344.331A.25.25 0 0 0 .332.233 1.533 1.533 0 0 1 .28.018C.28.007.285 0 .293 0c.013 0 .021.022.032.06.023.084.033.141.037.172.002.013.004.026.008.039a2.775 2.775 0 0 0 .155.365c0 .01-.01.01-.012.01-.003 0-.009 0-.012-.007A2.615 2.615 0 0 1 .369.343C.368.374.367.45.328.547.304.608.264.657.195.657.07.657 0 .505 0 .474c0-.01.009-.01.019-.01l.004.005z"/></symbol><use xlink:href="#y" transform="matrix(9.9626 0 0 -9.9626 173.373 300.221)"/><use xlink:href="#u" transform="matrix(9.9626 0 0 -9.9626 183.426 289.92)"/><use xlink:href="#a" transform="matrix(9.9626 0 0 -9.9626 193.887 291.245)"/><use xlink:href="#b" transform="matrix(9.9626 0 0 -9.9626 198.774 291.464)"/></svg>